<svg xmlns="http://www.w3.org/2000/svg" width="1170" height="780" viewBox="0 0 1170 780"><path d="M483.08,386.82a13.66,13.66,0,0,0-5.36,1,12.76,12.76,0,0,0-4.33,3.08h0a13.42,13.42,0,0,0-2.9,4.69,18.55,18.55,0,0,0,0,11.93,14.08,14.08,0,0,0,3,4.78,12.73,12.73,0,0,0,9.67,4.17,13.88,13.88,0,0,0,5.44-1,12.71,12.71,0,0,0,4.38-3.08h0a13.36,13.36,0,0,0,2.94-4.75,17.83,17.83,0,0,0,1-6.13,17.06,17.06,0,0,0-1-6,13.33,13.33,0,0,0-2.93-4.67,13,13,0,0,0-4.4-3A14.38,14.38,0,0,0,483.08,386.82Z" fill="#120500" fill-rule="evenodd"/><path d="M443.64,335.77V444.23h33.89a97.86,97.86,0,0,0,18-1.48,47.48,47.48,0,0,0,13.37-4.4,41.18,41.18,0,0,0,10.05-7.5,50.14,50.14,0,0,0,8-10.75h0a52.29,52.29,0,0,0,5.24-13.35A65,65,0,0,0,534,391.38a66.8,66.8,0,0,0-2.21-17.62,52.89,52.89,0,0,0-6.6-14.94,47.31,47.31,0,0,0-6.75-8.31,44.94,44.94,0,0,0-6.94-5.57v84.33H496.28V424.7c-.84.7-1.68,1.34-2.52,1.91a23,23,0,0,1-4.12,2.25,22.46,22.46,0,0,1-4.3,1.29,24.86,24.86,0,0,1-4.61.43,24.34,24.34,0,0,1-10-2.09,26.63,26.63,0,0,1-8.55-6.21h0a27.75,27.75,0,0,1-5.86-9.26,31.5,31.5,0,0,1-1.95-11.25,33.66,33.66,0,0,1,1.89-11.54,27.18,27.18,0,0,1,5.68-9.3h0a25.56,25.56,0,0,1,8.4-6.11,24.39,24.39,0,0,1,10-2.06,24.83,24.83,0,0,1,4.84.47h0a23.37,23.37,0,0,1,4.54,1.4h0a24,24,0,0,1,4.22,2.35h0a26.32,26.32,0,0,1,2.34,1.82v-40.4a89,89,0,0,0-12.69-1.91q-7.89-.71-18.16-.7Z" fill="#120500" fill-rule="evenodd"/><path d="M578.4,377.79H583v37.28H578.4v-4.58a11.3,11.3,0,0,1-10.07,5.28,12.78,12.78,0,0,1-9.53-4.08,14.48,14.48,0,0,1,0-19.86,12.78,12.78,0,0,1,9.53-4.08A11.31,11.31,0,0,1,578.4,393Zm-9.48,33.5a9.11,9.11,0,0,0,6.76-2.74,9.84,9.84,0,0,0,0-13.58,9.65,9.65,0,0,0-13.47,0,9.84,9.84,0,0,0,0,13.58A9.06,9.06,0,0,0,568.92,411.29Z"/><path d="M590.65,416.67V388.44h4.63v28.23c0,3.45-.87,6-2.61,7.64s-4.29,2.36-7.67,2.11v-4.48c2,.18,3.39-.14,4.29-.95S590.65,418.73,590.65,416.67ZM593,383.6a3,3,0,0,1-2.23-.91,3,3,0,0,1-.91-2.18,3,3,0,0,1,.91-2.21,3,3,0,0,1,2.23-.93,3,3,0,0,1,2.19.93,3.07,3.07,0,0,1,.9,2.21A3.09,3.09,0,0,1,593,383.6Z"/><path d="M624.36,388.44H629v26.63h-4.64v-4.58a11.28,11.28,0,0,1-10.06,5.28,12.78,12.78,0,0,1-9.54-4.08,14.48,14.48,0,0,1,0-19.86,12.78,12.78,0,0,1,9.54-4.08A11.29,11.29,0,0,1,624.36,393Zm-9.48,22.85a9.14,9.14,0,0,0,6.77-2.74,9.86,9.86,0,0,0,0-13.58,9.66,9.66,0,0,0-13.48,0,9.86,9.86,0,0,0,0,13.58A9.06,9.06,0,0,0,614.88,411.29Z"/><path d="M649.29,387.75a9.91,9.91,0,0,1,7.51,3,11.12,11.12,0,0,1,2.82,8v16.35H655V399a6.86,6.86,0,0,0-1.76-5,6.5,6.5,0,0,0-4.85-1.79,7.51,7.51,0,0,0-5.59,2.16q-2.13,2.16-2.13,6.63v14.11H636V388.44h4.63v3.84A9.47,9.47,0,0,1,649.29,387.75Z"/><path d="M688.17,388.44h4.58V414q0,5.91-4,9.18a14.62,14.62,0,0,1-9.59,3.28,16.66,16.66,0,0,1-7.73-1.68,11.22,11.22,0,0,1-4.89-4.82l4-2.29q2.19,4.47,8.68,4.47a9.25,9.25,0,0,0,6.53-2.18,7.71,7.71,0,0,0,2.37-6v-3.79a11.3,11.3,0,0,1-10,5.33,12.92,12.92,0,0,1-9.64-4.05,14.23,14.23,0,0,1,0-19.68,13,13,0,0,1,9.64-4,11.26,11.26,0,0,1,10,5.27Zm-16.25,19.92a9.46,9.46,0,1,0,0-13.47,9.72,9.72,0,0,0,0,13.47Z"/><path d="M722.26,411.72a14.25,14.25,0,0,1-19.9,0,14,14,0,0,1,9.94-24,13.67,13.67,0,0,1,10,4.05,14.15,14.15,0,0,1,0,19.92Zm-10-.48a9.29,9.29,0,1,0-6.66-2.72A9.12,9.12,0,0,0,712.3,411.24Z"/></svg>